<mxfile host="app.diagrams.net" modified="2023-07-26T10:59:57.767Z" agent="Mozilla/5.0 (Macintosh; Intel Mac OS X 10_15_7) AppleWebKit/537.36 (KHTML, like Gecko) Chrome/114.0.0.0 Safari/537.36" version="21.2.1" etag="i6l-DW_OEQCfS1UTB8vG" type="github">
  <diagram name="Page-1" id="RlY5jfRRGtlq1w6Xfphk">
    <mxGraphModel>
      <root>
        <mxCell id="0" />
        <mxCell id="1" parent="0" />
      </root>
    </mxGraphModel>
  </diagram>
</mxfile>
